# xmcd
#
# Track frame offsets: 
#        150
#        26601
#        69419
#        90153
#        119929
#        149622
#        164269
#        183836
#        213976
#        242254
#        265373
#
# Disc length: 4293 seconds
#
# Revision: 0
# Processed by: cddbd v1.4PL0 Copyright (c) Steve Scherf et al.
# Submitted via: ExactAudioCopy v0.90b3
#
DISCID=9710c30b
DTITLE=Hearne Family - He Won't Leave My Side
DYEAR=1998
DGENRE=Gospel
TTITLE0=Let's Praise Him
TTITLE1=He Won't Leave My Side
TTITLE2=Pour Out Your Spirit Lord
TTITLE3=Savious Like a Shepherd
TTITLE4=I Just Want to Thank You
TTITLE5=Lord, Take Me Higher
TTITLE6=Excited!
TTITLE7=Lift My Jesus Up
TTITLE8=Perfect Peace
TTITLE9=I Know What Prayer Can Do
TTITLE10=Move Up - Peace Be Still
EXTD=
EXTT0=
EXTT1=
EXTT2=
EXTT3=
EXTT4=
EXTT5=
EXTT6=
EXTT7=
EXTT8=
EXTT9=
EXTT10=
PLAYORDER=
